<svg width="54" height="54" viewBox="0 0 54 54" fill="none" xmlns="http://www.w3.org/2000/svg">
<path fill-rule="evenodd" clip-rule="evenodd" d="M12.3193 0.769701C11.1663 1.1075 10.7866 1.75898 10.7866 3.39996C10.7866 4.77926 10.7642 4.81459 9.69653 5.10413C8.01148 5.56108 6.00063 6.46951 5.0335 7.21078C4.83366 7.36376 4.63351 7.48938 4.58839 7.48962C4.05911 7.49261 1.49657 10.5373 0.861608 11.9178C0.568201 12.5559 0.456168 12.8603 0.368358 13.2611C0.31446 13.5073 0.210904 13.8349 0.138536 13.9889C-0.0443515 14.3787 -0.047077 43.1153 0.135811 43.6091C0.206664 43.8001 0.309615 44.1804 0.364723 44.454C0.462828 44.9413 0.611198 45.3331 0.93549 45.9615C1.02451 46.1341 1.09718 46.3047 1.09718 46.341C1.09718 46.4597 1.75818 47.5355 1.91412 47.6701C1.99769 47.7422 2.06612 47.8616 2.06612 47.9353C2.06612 48.0089 2.107 48.084 2.15696 48.1024C2.20692 48.1206 2.43674 48.3579 2.66777 48.6298C3.53679 49.6521 5.42047 51.0976 6.5829 51.6339C7.41104 52.016 8.85325 52.5632 9.0322 52.5632C9.12334 52.5632 9.22659 52.6015 9.26202 52.6485C9.33317 52.7433 10.459 52.9789 11.9372 53.2087C13.6189 53.4699 39.969 53.4289 41.5729 53.1625C45.8453 52.453 48.8977 50.6931 51.3316 47.5368C51.4152 47.4283 51.516 47.2724 51.5557 47.1903C51.5953 47.1082 51.7582 46.8241 51.9181 46.5592C52.078 46.2943 52.2088 46.0324 52.2088 45.9774C52.2088 45.9222 52.2824 45.7361 52.3726 45.5635C53.1638 44.0483 53.1883 43.5033 53.1353 28.576C53.0833 13.9623 53.1011 14.3369 52.3617 12.3656C51.1947 9.25401 47.7947 6.41553 43.7593 5.18497C42.8634 4.91185 42.8867 4.95513 42.8846 3.56314C42.8812 1.38237 42.0289 0.494586 40.0855 0.648063C38.7087 0.756766 38.0429 1.57665 38.0402 3.16688C38.0386 3.88726 37.9881 4.30739 37.8927 4.38575C37.6044 4.62255 15.7909 4.55092 15.6355 4.31262C15.5665 4.2069 15.5102 3.64622 15.5102 3.06689C15.5102 1.16621 14.196 0.220218 12.3193 0.769701ZM37.8927 6.91303C37.9869 6.99039 38.038 7.39361 38.038 8.06125C38.038 9.39254 38.3696 9.94974 39.4597 10.4502C40.441 10.9009 42.3271 10.293 42.5872 9.44205C42.6311 9.29777 42.7159 9.15524 42.7749 9.12514C42.8343 9.09504 42.8836 8.77067 42.8846 8.40452C42.8879 7.20058 43.5095 7.26426 45.8492 8.70899C47.101 9.48184 48.6894 11.1512 49.2335 12.2661C49.3537 12.5123 49.4991 12.8034 49.5566 12.9128C50.1931 14.1257 50.5156 18.084 50.0017 18.3796C49.7604 18.5186 47.3199 18.5345 26.3808 18.5345H3.029L2.8982 18.2609C2.72197 17.8915 2.82613 14.2884 3.01811 14.1307C3.09411 14.0683 3.15648 13.9031 3.15679 13.7635C3.15739 13.624 3.23915 13.3815 3.33846 13.2248C3.43808 13.068 3.51953 12.8773 3.51953 12.8009C3.51953 12.6205 4.5993 10.933 4.74252 10.8898C4.80247 10.8714 4.85183 10.7868 4.85183 10.7017C4.85183 10.4696 7.26328 8.56496 7.9491 8.25527C8.27733 8.10702 8.79117 7.88961 9.09094 7.77245C9.39071 7.65529 9.81704 7.48763 10.0381 7.40032C10.5867 7.18342 10.7866 7.40182 10.7866 8.21895C10.7866 10.342 12.9849 11.3415 14.7635 10.0273C15.4099 9.54951 15.5102 9.30274 15.5102 8.18512C15.5102 7.63141 15.5665 7.09188 15.6355 6.98616C15.7909 6.74786 37.6044 6.67622 37.8927 6.91303ZM25.8503 9.3913C22.4105 9.74601 21.1685 13.3024 23.7601 15.3754C24.085 15.6354 24.4329 15.848 24.5331 15.848C24.633 15.848 24.7151 15.8866 24.7151 15.9339C24.7151 16.0911 26.4353 16.3067 27.0736 16.2296C29.5586 15.9289 31.2449 14.0202 30.695 12.1308C30.1306 10.1908 28.2745 9.14131 25.8503 9.3913ZM27.5832 11.4586C29.2022 12.4218 28.4504 14.4717 26.478 14.4717C25.3595 14.4717 24.594 13.7931 24.594 12.8014C24.594 11.4823 26.3202 10.7069 27.5832 11.4586ZM50.0823 22.5366C50.4992 23.0257 50.3151 43.6643 49.8903 44.0511C49.8331 44.1031 49.7864 44.2307 49.7864 44.3346C49.7864 44.4384 49.712 44.6645 49.6211 44.8371C49.5303 45.0095 49.3547 45.352 49.2311 45.5983C47.9539 48.1395 44.9112 50.2158 41.5871 50.8143C40.0934 51.0832 12.2921 51.0441 11.0434 50.7712C8.12715 50.1342 5.18369 48.1385 4.00007 45.9963C3.95465 45.9142 3.82808 45.7057 3.71847 45.5331C3.60916 45.3605 3.51953 45.1344 3.51953 45.0306C3.51953 44.9269 3.46564 44.7978 3.39963 44.7436C3.25943 44.6284 3.06141 43.9264 2.91152 43.0113C2.76194 42.0999 2.76134 22.8938 2.91092 22.5707L3.029 22.3155H26.4613H49.8939L50.0823 22.5366ZM20.7515 24.2699C20.1375 24.5174 20.1033 24.9826 20.6171 26.0965C21.2981 27.5723 22.0281 27.921 22.9138 27.1934C23.3017 26.8748 23.3483 26.5837 23.0794 26.1596C22.9798 26.0029 22.8983 25.8353 22.8983 25.7868C22.8983 24.8883 21.5612 23.9435 20.7515 24.2699ZM32.476 24.3642C32.271 24.5057 32.1033 24.6669 32.1033 24.7221C32.1033 24.8331 31.8135 25.4022 31.5474 25.8134C31.0438 26.5917 31.515 27.3899 32.4781 27.3899C32.9556 27.3899 33.5567 27.0109 33.5567 26.7099C33.5567 26.6357 33.6315 26.4561 33.7229 26.3109C34.3779 25.2709 34.4502 24.7318 33.986 24.3507C33.5812 24.0179 32.9687 24.0234 32.476 24.3642ZM28.5303 28.87C27.4103 29.1098 26.855 29.5006 25.3307 31.1212C24.713 31.7779 24.1168 32.4047 24.0057 32.5142C23.8948 32.6236 23.5345 33.0042 23.2054 33.3599C22.8762 33.7156 22.5768 34.029 22.5401 34.0564C22.5035 34.0837 22.0417 34.5763 21.5137 35.1509C20.9859 35.7255 20.5226 36.218 20.4845 36.2454C20.446 36.2727 20.1726 36.5638 19.8768 36.8921C19.5806 37.2205 19.2188 37.601 19.0725 37.7379C16.9381 39.7323 18.1042 42.1561 21.6266 43.0481C22.0263 43.1494 22.5441 43.2902 22.7772 43.3611C23.4876 43.577 28.4919 44.8881 29.1059 45.0192C30.6081 45.3401 32.7788 44.2764 33.1915 43.0173C33.4465 42.2392 33.293 32.8124 33.0023 31.3898C32.6314 29.576 30.5942 28.4277 28.5303 28.87ZM40.4268 31.2592C38.8971 31.798 38.7245 31.9229 38.7245 32.4893C38.7245 33.1606 39.7249 33.6676 40.2848 33.2803C40.348 33.2365 40.7268 33.095 41.1265 32.9659C42.5164 32.5169 42.9927 32.0729 42.6995 31.5003C42.3686 30.8535 41.7606 30.7891 40.4268 31.2592ZM12.4186 31.2102C12.0535 31.3411 11.7555 31.7194 11.7555 32.0525C11.7555 32.3425 12.3605 32.7099 13.4721 33.0952C15.1877 33.69 15.8766 33.5571 15.8696 32.6328C15.865 32.0067 15.7815 31.946 14.2233 31.4343C12.9961 31.0314 12.9388 31.0242 12.4186 31.2102ZM29.9889 31.4122C30.2005 31.6774 30.5324 37.8135 30.3649 38.3617C30.2511 38.7343 30.2456 38.7336 27.0836 37.8759C23.4367 36.8866 23.4918 36.92 24.2052 36.1314C24.6025 35.6927 25.5726 34.6653 25.8418 34.3987C25.949 34.2924 26.5621 33.646 27.2044 32.9619C29.0254 31.0222 29.4771 30.7707 29.9889 31.4122ZM22.5023 38.9674C22.7533 39.0418 23.2587 39.1801 23.625 39.2744C23.9914 39.3689 24.4002 39.4851 24.5334 39.5323C24.6667 39.5796 25.3207 39.7607 25.9868 39.9343C30.586 41.1345 30.4076 41.0594 30.4076 41.7967C30.4076 42.6178 29.918 42.9141 29.0508 42.6178C28.8976 42.5656 27.5462 42.2036 26.0474 41.8138C22.4114 40.8681 21.3535 40.5624 21.157 40.4009C20.7455 40.0629 20.8115 39.5992 21.342 39.1025C21.666 38.799 21.8579 38.7769 22.5023 38.9674ZM39.4914 40.1365C38.164 40.5646 38.6037 41.5193 40.3998 42.1096C42.07 42.6583 42.8827 42.4974 42.8827 41.6183C42.8827 41.0002 42.5488 40.8248 39.9759 40.0905C39.876 40.0622 39.658 40.0828 39.4914 40.1365ZM13.6646 40.8069C12.2957 41.2925 11.9972 41.5046 11.9996 41.9907C12.0029 42.6454 12.686 43.0334 13.4451 42.8118C15.5822 42.1877 16.2896 41.6793 15.985 40.987C15.6928 40.3233 15.1477 40.2808 13.6646 40.8069ZM31.9652 46.3856C31.1044 46.9587 32.4152 49.4788 33.5739 49.4788C34.4584 49.4788 34.8287 48.8362 34.4051 48.036C34.3473 47.9266 34.2104 47.6579 34.1008 47.439C33.6987 46.6338 33.4982 46.3711 33.22 46.2841C32.7628 46.1413 32.2728 46.1809 31.9652 46.3856ZM21.7665 46.4995C21.5924 46.6119 21.3635 46.8694 21.2581 47.0716C21.153 47.2736 20.9868 47.5681 20.889 47.7258C20.2952 48.6833 20.6731 49.63 21.6396 49.6076C22.2198 49.5939 22.5553 49.3118 22.9532 48.5032C23.1336 48.1368 23.331 47.7592 23.3925 47.6641C23.9378 46.8191 22.6734 45.9135 21.7665 46.4995Z" fill="url(#paint0_linear_153_3148)"/>
<defs>
<linearGradient id="paint0_linear_153_3148" x1="26.5762" y1="0.614746" x2="26.5762" y2="53.3848" gradientUnits="userSpaceOnUse">
<stop stop-color="#34C4B3"/>
<stop offset="1" stop-color="#264653"/>
</linearGradient>
</defs>
</svg>
